<svg xmlns="http://www.w3.org/2000/svg" width="38" height="42" viewBox="0 0 38 42">
    <g fill="none" fill-rule="evenodd">
        <path fill="#00A375" d="M19.882 25.025v12.206a4.639 4.639 0 0 0 1.473-.528l10.1-5.807a4.786 4.786 0 0 0 2.395-4.14V15.175c0-.47-.078-.926-.213-1.363L22.66 20.145c-2.257 1.596-2.745 3.107-2.777 4.88"/>
        <path fill="#0C9" d="M37.643 11.5l-4.006 2.312c.135.436.212.893.212 1.361v11.584c0 1.703-.917 3.29-2.394 4.14l-10.1 5.806a4.645 4.645 0 0 1-1.472.529v4.61a5.77 5.77 0 0 0 2.03-.695l13.116-7.542a5.922 5.922 0 0 0 2.961-5.119V13.444a5.74 5.74 0 0 0-.347-1.944"/>
        <path fill="#00A375" d="M18.962 21.189c.597-.975 1.487-1.816 2.766-2.621l11.05-6.376a4.672 4.672 0 0 0-1.323-1.158l-10.1-5.806a4.791 4.791 0 0 0-4.767.002L6.53 11.033c-.53.305-.974.716-1.34 1.184l10.998 6.346c1.286.81 2.177 1.651 2.774 2.626"/>
        <path fill="#0C9" d="M6.53 11.033L16.588 5.23a4.791 4.791 0 0 1 4.767-.003l10.1 5.808c.52.299.96.7 1.322 1.157l4-2.307a5.779 5.779 0 0 0-1.749-1.56L21.912.783a5.926 5.926 0 0 0-5.894.004L2.955 8.323A5.863 5.863 0 0 0 1.192 9.91l3.997 2.306a4.68 4.68 0 0 1 1.34-1.184M16.588 36.7L6.53 30.897a4.786 4.786 0 0 1-2.39-4.136V15.17c0-.456.075-.9.201-1.326L.333 11.531A5.77 5.77 0 0 0 0 13.438v15.055a5.918 5.918 0 0 0 2.955 5.114l13.062 7.537c.62.356 1.3.585 2.024.696v-4.613a4.63 4.63 0 0 1-1.453-.527"/>
        <path fill="#00A375" d="M15.247 20.133l-10.906-6.29c-.126.426-.2.87-.2 1.326V26.76c0 1.702.916 3.287 2.39 4.136L16.587 36.7c.457.262.949.43 1.453.525V25.022c-.032-1.77-.519-3.281-2.794-4.889"/>
    </g>
</svg>
