<svg xmlns="http://www.w3.org/2000/svg" width="1440" height="2119" viewBox="0 0 1440 2119">
    <g fill="#F8F9FD" fill-rule="evenodd">
        <path d="M1677 1389.219c0-106.318-57.195-918.285-149.252-971.302L867.911 37.204C833.142 17.154 794.75 4.694 753.486.06L684.808 0c-41.299 4.553-79.785 16.978-114.66 37.028L-92.407 417.999C-184.664 471.052-242 1283.113-242 1389.537l1919-.318z"/>
        <path d="M1525 1327.871v113.883c0 106.317-57.195 205.316-149.252 258.334l-659.837 380.713c-34.769 20.049-73.161 32.51-114.425 37.145l-68.678.059c-41.299-4.554-79.785-16.979-114.66-37.028l-662.555-380.971C-336.664 1646.953-394 1547.859-394 1441.436v-113.247c1185.753-134.668 2082.29-87.286 1919-.318z"/>
    </g>
</svg>
