<svg xmlns="http://www.w3.org/2000/svg" width="194" height="42" viewBox="0 0 194 42">
    <g fill="none" fill-rule="evenodd">
        <path fill="#00A375" d="M19.882 25.025v12.206a4.639 4.639 0 0 0 1.473-.528l10.1-5.807a4.786 4.786 0 0 0 2.395-4.14V15.175c0-.47-.078-.926-.213-1.363L22.66 20.145c-2.257 1.596-2.745 3.107-2.777 4.88"/>
        <path fill="#0C9" d="M37.643 11.5l-4.006 2.312c.135.436.212.893.212 1.361v11.584c0 1.703-.917 3.29-2.394 4.14l-10.1 5.806a4.645 4.645 0 0 1-1.472.529v4.61a5.77 5.77 0 0 0 2.03-.695l13.116-7.542a5.922 5.922 0 0 0 2.961-5.119V13.444a5.74 5.74 0 0 0-.347-1.944"/>
        <path fill="#00A375" d="M18.962 21.189c.597-.975 1.487-1.816 2.766-2.621l11.05-6.376a4.672 4.672 0 0 0-1.323-1.158l-10.1-5.806a4.791 4.791 0 0 0-4.767.002L6.53 11.033c-.53.305-.974.716-1.34 1.184l10.998 6.346c1.286.81 2.177 1.651 2.774 2.626"/>
        <path fill="#0C9" d="M6.53 11.033L16.588 5.23a4.791 4.791 0 0 1 4.767-.003l10.1 5.808c.52.299.96.7 1.322 1.157l4-2.307a5.779 5.779 0 0 0-1.749-1.56L21.912.783a5.926 5.926 0 0 0-5.894.004L2.955 8.323A5.863 5.863 0 0 0 1.192 9.91l3.997 2.306a4.68 4.68 0 0 1 1.34-1.184M16.588 36.7L6.53 30.897a4.786 4.786 0 0 1-2.39-4.136V15.17c0-.456.075-.9.201-1.326L.333 11.531A5.77 5.77 0 0 0 0 13.438v15.055a5.918 5.918 0 0 0 2.955 5.114l13.062 7.537c.62.356 1.3.585 2.024.696v-4.613a4.63 4.63 0 0 1-1.453-.527"/>
        <path fill="#00A375" d="M15.247 20.133l-10.906-6.29c-.126.426-.2.87-.2 1.326V26.76c0 1.702.916 3.287 2.39 4.136L16.587 36.7c.457.262.949.43 1.453.525V25.022c-.032-1.77-.519-3.281-2.794-4.889"/>
        <path fill="#0C9" d="M161.833 20.633c0 3.088 2.105 5.986 5.576 5.986 3.662 0 5.439-3.335 5.439-5.931 0-2.624-1.777-5.986-5.494-5.986-3.58 0-5.521 3.06-5.521 5.904v.027zm-5.165.246c0-6.615 5.083-10.714 10.659-10.714 6.231 0 10.687 4.865 10.687 10.495 0 5.63-4.429 10.495-10.715 10.495-6.368 0-10.631-5.055-10.631-10.249v-.027z"/>
        <g fill="#2A506F">
            <path d="M57.219 20.286c-.995.804-1.492 1.83-1.492 3.077 0 1.32.458 2.426 1.372 3.321.915.895 2.118 1.342 3.609 1.342 1.411 0 2.554-.426 3.43-1.279.874-.85 1.311-1.912 1.311-3.181 0-1.25-.437-2.315-1.312-3.194-.875-.88-2.018-1.32-3.43-1.32-1.332.019-2.495.43-3.488 1.234zM52 11h3.966v6.588h.06c.437-.578 1.018-1.025 1.745-1.342a8.611 8.611 0 0 1 2.251-.637c.199-.018.387-.031.567-.04.178-.01.358-.014.536-.014 2.426 0 4.414.805 5.965 2.413 1.55 1.609 2.326 3.47 2.326 5.584 0 .308-.02.629-.06.963a5.71 5.71 0 0 1-.209.99 8.547 8.547 0 0 1-.716 1.898 7.322 7.322 0 0 1-1.132 1.626 7.133 7.133 0 0 1-2.714 1.857 9 9 0 0 1-3.34.638c-1.134 0-2.182-.196-3.147-.584-.965-.388-1.764-1.025-2.4-1.911l-.06-.027v2.033H52V11zM84.655 23.499c0-1.247-.443-2.3-1.328-3.16-.885-.858-2.033-1.278-3.444-1.26-1.452-.018-2.64.416-3.564 1.302-.924.886-1.386 1.988-1.386 3.307 0 1.23.481 2.264 1.446 3.104.964.84 2.112 1.253 3.444 1.234 1.432.019 2.595-.407 3.49-1.274.894-.868 1.342-1.943 1.342-3.226v-.027zm3.757 7.536h-3.638v-2.033h-.06c-.497.65-1.154 1.184-1.969 1.6a8.656 8.656 0 0 1-2.534.84l-.551.054c-.19.018-.374.027-.552.027-1.273 0-2.427-.222-3.46-.664a7.556 7.556 0 0 1-2.624-1.83 7.805 7.805 0 0 1-1.52-2.494 8.312 8.312 0 0 1-.538-2.983c0-1.048.164-2.014.492-2.9.329-.885.87-1.717 1.625-2.494.836-.886 1.764-1.541 2.789-1.966 1.024-.424 2.141-.637 3.355-.637 1.133 0 2.177.222 3.13.664a6.44 6.44 0 0 1 2.417 1.939v-2.142h3.638v15.019zM91.364 31.035h3.966V11h-3.966zM111.046 21.926c-.319-.886-.895-1.582-1.73-2.087a5.247 5.247 0 0 0-2.773-.76h-.24a5.695 5.695 0 0 0-2.683.847c-.835.51-1.391 1.176-1.67 2h9.096zm-9.036 3.2c.298.885.85 1.59 1.655 2.113a4.842 4.842 0 0 0 2.699.787c.755 0 1.465-.118 2.131-.352.666-.236 1.189-.552 1.567-.95l4.384-.027c-.498 1.356-1.506 2.5-3.027 3.43-1.521.93-3.157 1.396-4.906 1.396-2.406 0-4.458-.763-6.158-2.29-1.7-1.527-2.55-3.385-2.55-5.572 0-2.223.845-4.13 2.535-5.72 1.69-1.59 3.767-2.386 6.232-2.386 2.366 0 4.37.789 6.01 2.366 1.64 1.576 2.46 3.41 2.46 5.5 0 .235-.015.465-.045.69-.03.225-.065.446-.105.662-.02.073-.035.136-.044.19a.888.888 0 0 0-.015.162H102.01zM117.607 16.016h3.668V17.4h.06c.456-.56 1.058-.994 1.804-1.302a7.395 7.395 0 0 1 2.34-.542h.597c.079 0 .16.01.239.027a6.924 6.924 0 0 1 2.31.57c.747.325 1.388.75 1.924 1.273l.224.204c.07.063.134.14.194.23.635.814 1.014 1.682 1.133 2.603.12.922.18 1.862.18 2.82v7.753h-3.967v-7.781c0-.253-.01-.505-.03-.759a7.26 7.26 0 0 0-.21-1.152c-.099-.37-.248-.709-.446-1.017a2.753 2.753 0 0 0-1.06-.868 3.827 3.827 0 0 0-1.385-.379h-.373c-.07 0-.144.01-.224.027a3.904 3.904 0 0 0-1.342.421 2.63 2.63 0 0 0-1.014.88c-.198.29-.348.629-.447 1.018-.1.388-.16.781-.18 1.179-.02.235-.029.47-.029.705v7.726h-3.966V16.016zM148.472 23.499c0-1.247-.443-2.3-1.327-3.16-.885-.858-2.034-1.278-3.444-1.26-1.453-.018-2.64.416-3.564 1.302-.924.886-1.388 1.988-1.388 3.307 0 1.23.483 2.264 1.447 3.104.964.84 2.113 1.253 3.445 1.234 1.431.019 2.594-.407 3.489-1.274.894-.868 1.342-1.943 1.342-3.226v-.027zm3.758 7.536h-3.64v-2.033h-.058c-.498.65-1.154 1.184-1.969 1.6a8.666 8.666 0 0 1-2.535.84l-.551.054c-.19.018-.373.027-.552.027-1.272 0-2.426-.222-3.46-.664a7.548 7.548 0 0 1-2.623-1.83 7.796 7.796 0 0 1-1.521-2.494 8.312 8.312 0 0 1-.538-2.983c0-1.048.165-2.014.492-2.9.33-.885.87-1.717 1.626-2.494.835-.886 1.764-1.541 2.788-1.966 1.024-.424 2.142-.637 3.355-.637 1.133 0 2.177.222 3.131.664a6.44 6.44 0 0 1 2.416 1.939v-2.142h3.639v15.019z"/>
        </g>
        <path fill="#0C9" d="M184.79 24.076c0 2.351 1.448 2.761 2.105 2.761 1.23 0 1.967-1.011 1.967-1.94 0-1.066-.847-1.395-3.962-2.707-1.422-.573-4.948-1.994-4.948-5.793 0-4.073 3.69-6.232 7.079-6.232 2.788 0 6.723 1.421 6.806 6.286h-5.111c-.11-.683-.274-1.967-1.859-1.967-.902 0-1.776.628-1.776 1.584 0 .93.546 1.176 4.181 2.816 3.772 1.694 4.729 3.443 4.729 5.794 0 3.225-1.695 6.477-7.052 6.477-5.302 0-7.434-3.115-7.298-7.079h5.14z"/>
    </g>
</svg>
