<svg xmlns="http://www.w3.org/2000/svg" width="1440" height="745" viewBox="0 0 1440 745">
    <defs>
        <linearGradient id="a" x1="22.831%" x2="33.171%" y1="48.431%" y2="94.108%">
            <stop offset="0%" stop-color="#FFF" stop-opacity=".5"/>
            <stop offset="100%" stop-color="#0C9"/>
        </linearGradient>
    </defs>
    <path fill="url(#a)" fill-rule="evenodd" d="M1663.706-782.066c-18.804-25.227-41.637-45.678-68.04-60.841l-1018.703-.851c-70.251-40.39-157.409-40.3-227.579.135L-154.927-552.65c-29.038 16.755-54.325 40.345-73.687 68.674l-24.532 46.434C-263.667-410.778-269-383.123-269-355.172v581.274c0 81.265 43.714 156.935 114.073 197.46l504.311 291c26.574 15.326 55.917 24.85 87.454 28.393 11.931.758 20.652 1.14 26.162 1.144 6.155.005 14.93-.361 26.329-1.099 31.564-3.48 60.98-12.978 87.634-28.302L1595.667 133.15C1666.178 92.6 1710 16.857 1710-64.489v-580.787c0-31.297-6.646-62.01-19.757-91.49l-26.537-45.3z"/>
</svg>
